<?xml version="1.0" encoding="utf-8"?>
<!-- Generator: Adobe Illustrator 24.3.0, SVG Export Plug-In . SVG Version: 6.00 Build 0)  -->
<svg version="1.1" id="Layer_1" xmlns="http://www.w3.org/2000/svg" xmlns:xlink="http://www.w3.org/1999/xlink" x="0px" y="0px"
	 viewBox="0 0 175.1 122" style="enable-background:new 0 0 175.1 122;" xml:space="preserve">
<style type="text/css">
	.st0{fill:#FBFFFF;}
</style>
<path class="st0" d="M175.1,15.6c-0.1,1.4-0.3,2.7-0.7,4l-26.2,97.6c-0.4,1.6-1.4,3-2.8,3.8c-1.3,0.8-2.9,1.1-4.4,0.7
	c-1.5-0.2-2.9-1.1-3.8-2.4c-0.9-1.3-1.4-2.8-1.3-4.4l1.5-17.6c0.2-1.4-0.3-2.9-1.4-3.9c-1-1-2.3-1.6-3.7-1.5c-1.7,0-3.3,0.9-4.2,2.4
	l-14.7,23.3c-1.2,2-3.2,3.3-5.5,3.8l-1.4,0.2c-1.9,0-3.8-0.6-5.3-1.8c-1.5-1.1-2.6-2.7-3.1-4.5l-6.2-23.1c-0.3-1.1-1-2.1-1.9-2.7
	c-0.9-0.6-1.9-0.9-3-0.9c-2.3-0.2-4.4,1.4-4.9,3.6l-6.2,23.1c-1.1,3.7-4.5,6.3-8.4,6.4l-1.5-0.2c-2.3-0.4-4.3-1.9-5.4-4L47.2,96.2
	c-0.9-1.5-2.5-2.4-4.2-2.4c-1.4,0-2.8,0.5-3.7,1.5c-1,1-1.5,2.5-1.4,3.9l1.3,15.8c0.1,1.6-0.3,3.1-1.3,4.4c-0.9,1.3-2.3,2.1-3.8,2.4
	c-1.5,0.4-3.1,0.1-4.5-0.7c-1.4-0.8-2.4-2.2-2.8-3.8L0.7,19.6c-0.4-1.3-0.6-2.6-0.7-4v-0.7c0.1-1.5,0.4-3,0.9-4.4v-0.4
	c0.9-2.6,2.5-4.8,4.5-6.5c0-0.1,0-0.2,0.1-0.2c0,0,0,0,0,0c1.2-1.2,2.7-2,4.4-2.5C11.6,0.3,13.3,0,15.1,0h0.7c2.6,0,5.1,0.7,7.3,2
	c0,0.1,0,0.2,0.1,0.2c0,0,0,0,0,0h0.2c1.3,0.9,2.4,1.9,3.5,3.1l0.2,0.2c0,0.1,0,0.2,0.1,0.2c0,0,0,0,0,0c1.1,1.4,1.9,3,2.5,4.7
	l26.7,65.8c0.7,2,2.6,3.2,4.7,3.1c1.3,0,2.5-0.4,3.5-1.2c1-0.8,1.6-2.1,1.6-3.4L71.6,14c0.7-8.4,8.1-14.7,16.5-14
	c7.5,0.6,13.4,6.5,14,14l5.3,61.6c0.1,1.3,0.7,2.6,1.7,3.4c1,0.8,2.2,1.3,3.5,1.3c2,0.1,3.9-1.2,4.6-3.1L145.4,10
	c0.6-1.5,1.4-3,2.4-4.4h0.2V5.4c0.1,0,0.2,0,0.2-0.1c0,0,0,0,0,0h0.2c1-1.2,2.2-2.2,3.5-3.1c0.1,0,0.2,0,0.2-0.1c0,0,0,0,0,0
	c2.3-1.3,4.8-2,7.4-2h0.6c1.7,0,3.5,0.3,5.1,0.9c1.6,0.5,3.1,1.4,4.4,2.5c0.1,0,0.2,0,0.2,0.1c0,0,0,0,0,0c2.1,1.7,3.7,4,4.5,6.6
	l0.2,0.4c0.4,1.4,0.7,2.9,0.7,4.4L175.1,15.6L175.1,15.6z"/>
</svg>
