<?xml version="1.0" encoding="utf-8"?>
<!-- Generator: Adobe Illustrator 23.1.1, SVG Export Plug-In . SVG Version: 6.00 Build 0)  -->
<svg version="1.1" id="Livello_1" xmlns="http://www.w3.org/2000/svg" xmlns:xlink="http://www.w3.org/1999/xlink" x="0px" y="0px"
	 viewBox="0 0 320 243.6" style="enable-background:new 0 0 320 243.6;" xml:space="preserve">
<g fill="#fff">
	<path class="st0" d="M27.3,115.7c-0.5-0.2-5.2-1.9-14-5.1S0,104.6,0,102.1c0-1.8,4.1-2.7,12.2-2.7c3.2,0,8.4,0.2,15.5,0.7
		c-1.9-5.8-3.2-10-4-12.7s-1.2-4.7-1.2-6c0-1.4,0.5-2.1,1.5-2.1c0.8,0,2.1,0.5,3.9,1.4s2.9,1.5,3.3,1.7c3.8,2.1,7.1,3.8,10,5.1
		c0.4-8.9,1.2-15.5,2.5-19.9c1.2-4.4,2.7-6.6,4.4-6.6c1.4,0,2.8,1.6,4.3,4.7C53.8,69.1,55,73.4,56,79c1.1,6.2,1.8,12.5,2,18.8
		c2.8-8.1,5.4-14.3,7.9-18.6c2.5-4.3,4.5-6.5,6-6.5c1.3,0,1.9,1.7,1.9,5.2c0,4.8-1.2,11.4-3.6,20c3.7-0.3,7.5-0.4,11.5-0.4
		c6,0,10.9,0.4,14.9,1.1s6,1.8,6,3.2c0,1.7-3.4,3.9-10.2,6.6s-17.7,5.8-32.8,9.4c1.3,2,3.1,5.8,5.4,11.5c2.3,5.7,3.4,9.9,3.4,12.7
		c0,2-0.6,3-1.9,3s-3.4-1.1-6.3-3.4c1.6,5.4,2.8,10.9,3.7,16.4c0.8,4.6,1.2,9.3,1.3,14c0,5.3-0.7,7.9-2.2,7.9c-1,0-2.3-1.4-4-4.2
		s-3.5-7.1-5.6-12.8c-2.8,6.5-5.4,11.3-7.8,14.6s-4.6,4.9-6.3,4.9s-3-1.3-4-4c-0.9-2.6-1.4-6.5-1.4-11.6c0-8.8,1.4-20,4.3-33.7
		c0.3-1.9,0.5-3.9,0.6-5.8c0-1.1-0.1-2.1-0.3-3.1c-0.2-1.6-0.8-3.1-1.9-4.3c-1.1-1.1-2.8-2.1-5-2.8L27.3,115.7z"/>
	<path class="st0" d="M188.1,76.8c8.3,4.7,15.2,11.4,20.1,19.6c9.8,16.7,9.8,37.4,0,54.1c-4.8,8.2-11.8,15-20.1,19.7
		c-26.2,15-59.7,6.3-75.1-19.7c-9.8-16.7-9.8-37.4,0-54.1C128.5,70.7,161.8,62,188.1,76.8z M192.8,114.2c1-1.3,1.6-2.8,1.6-4.5
		c0.1-1.5-0.5-3-1.5-4.2c-3.8-4.4-8.6-7.8-14-10c-5.8-2.4-12.1-3.6-18.4-3.6c-6.3-0.1-12.5,1.2-18.3,3.7
		c-5.4,2.3-10.1,5.7-13.9,10.1c-1,1.1-1.6,2.6-1.6,4.2s0.6,3.1,1.6,4.3c1,1.3,2.5,2.1,4.1,2.2h0.1c9.8,0.8,18.9,1.2,27.5,1.2
		c8.5,0,17.6-0.4,27.3-1.2l1.5-0.1C190.3,116.2,191.8,115.5,192.8,114.2L192.8,114.2z M194.2,137.3c0-1.6-0.5-3.2-1.6-4.4
		c-1-1.2-2.5-2-4.1-2l-1.3-0.1c-9.2-0.9-18.3-1.3-27.3-1.3c-9.2,0-18.3,0.4-27.5,1.3c-1.6,0.1-3.1,0.8-4.1,2.1
		c-1,1.2-1.6,2.7-1.6,4.3c0,1.5,0.6,3,1.6,4.2c3.9,4.3,8.6,7.7,14,10c5.7,2.5,11.9,3.8,18.1,3.7c6.2,0,12.4-1.2,18.1-3.7
		c5.3-2.2,10-5.6,13.9-9.8C193.6,140.5,194.2,138.9,194.2,137.3L194.2,137.3z"/>
	<path class="st0" d="M222.4,75c0-0.7,0.3-1.4,0.7-1.9c0.4-0.4,1.1-0.6,2.1-0.6c0.4,0,0.8,0,1.2,0.1c0.3,0.2,0.6,0.4,0.9,0.6
		c0.4,0.3,0.6,0.8,0.6,1.3h-1.5l-0.1-0.3l-0.1-0.3c-0.2-0.2-0.6-0.3-0.9-0.3c-0.4,0-0.8,0.2-1,0.4c-0.4,0.5-0.4,1.3,0,1.8
		c0.3,0.3,0.6,0.4,1,0.4c0.3,0,0.6-0.1,0.7-0.3c0.3-0.2,0.4-0.3,0.4-0.4v-0.1h1.5c0,0.5-0.2,1-0.6,1.3c-0.2,0.3-0.6,0.5-0.9,0.6
		c-0.4,0.1-0.8,0.2-1.2,0.1c-0.7,0-1.5-0.2-2.1-0.6C222.6,76.4,222.4,75.7,222.4,75L222.4,75z M222.5,83.2c0-0.7,0.2-1.4,0.7-1.9
		c0.5-0.4,1.2-0.7,1.9-0.6c0.7,0,1.5,0.2,2.1,0.6c0.5,0.5,0.8,1.2,0.7,1.9c0,0.7-0.2,1.3-0.7,1.8s-1.2,0.8-1.9,0.7
		c-0.7,0-1.5-0.2-2.1-0.6C222.8,84.6,222.5,83.9,222.5,83.2z M237.3,122.4v-5.7c0-1.7-0.6-2.5-1.9-2.5c-1.5,0-2.2,0.8-2.2,2.5v5.7
		h-3v-5.7c0-1.7-0.7-2.5-2.2-2.5c-1.4,0-2.1,0.8-2.1,2.5v5.7h-3.3v-10.9h3.3v1.9h0.1c0-0.3,0.1-0.5,0.3-0.7l0.6-0.7
		c0.4-0.3,1.2-0.4,2.4-0.4c1.3,0,2.1,0.1,2.4,0.4c0.4,0.3,0.8,0.7,1,1.2v0.3h0.1l0.4-0.7l0.6-0.7c0.4-0.3,1.2-0.4,2.4-0.4
		c2.9,0,4.3,1.5,4.3,4.6v6.3L237.3,122.4z M224.5,97.8v0.7H223v-6.1l-0.1-1h3.9c-0.1,0.4-0.1,0.6,0,0.7v5.2c0.2-0.5,0.3-1.1,0.3-1.6
		c0.1-0.9,0.2-1.9,0.1-2.8c0-0.6,0-1.2-0.1-1.8h4.6c-0.1,0.4-0.2,0.8-0.1,1.2l0.1,6.3c0,0.4-0.1,0.9-0.4,1.2
		c-0.5,0.1-1.1,0.2-1.6,0.1h-0.4c0-0.5-0.1-0.9-0.3-1.3h0.9c0.3,0,0.4-0.1,0.4-0.3V97h-1.8c-0.2,1.2-0.8,2.3-1.6,3.1
		c-0.3-0.5-0.7-0.9-1.2-1.2c0.4-0.4,0.7-0.8,1-1.2h-2.2L224.5,97.8z M226.7,83.2c0-0.4-0.2-0.8-0.4-1c-0.3-0.2-0.7-0.3-1-0.3
		c-0.4,0-0.7,0.1-0.9,0.4c-0.3,0.1-0.4,0.4-0.4,0.9c0,0.4,0.1,0.7,0.4,0.9c0.3,0.3,0.6,0.4,1,0.4c0.5,0,0.8-0.1,0.9-0.4
		C226.6,83.9,226.7,83.5,226.7,83.2z M225.2,93.9v-1.2h-0.9v1.2H225.2z M225.4,96.4l-0.1-1.2h-0.9v1.2H225.4z M228.7,94.7
		c0,0.4,0,0.7-0.1,1h1.6l-0.1-1H228.7z M232.4,81.8H231v3.7h-1.3l-0.1-3.7h-0.9v-0.7l0.9-0.3v-0.1c0-1.4,0.7-2.1,2.2-2.1h0.6
		c0.1,0.1,0.3,0.2,0.4,0.1l0.1,0.1V80c-0.2-0.2-0.6-0.3-0.9-0.3c-0.7,0-1,0.3-1,0.9v0.1l1.3-0.1L232.4,81.8z M228.7,92.4v1l1.3-0.1
		v-0.9H228.7z M228.8,75c-0.1-0.8,0.3-1.5,0.9-1.9c0.5-0.5,1.2-0.8,1.9-0.7c0.8,0,1.5,0.3,2.1,0.7c0.5,0.5,0.8,1.1,0.7,1.8
		c0,0.7-0.2,1.4-0.7,1.9c-0.6,0.4-1.2,0.7-1.9,0.7c-0.8,0-1.5-0.2-2.1-0.7C229.2,76.3,228.9,75.6,228.8,75z M233,74.8
		c0-0.3-0.1-0.6-0.3-0.9c-0.3-0.3-0.6-0.4-1-0.4s-0.7,0.1-0.9,0.4c-0.3,0.2-0.4,0.5-0.4,0.9s0.2,0.8,0.4,1c0.1,0.2,0.4,0.3,0.9,0.3
		c0.4,0,0.7-0.1,1-0.3C232.9,75.6,233,75.2,233,74.8z M239.4,91.1l1-0.1v1.2l0.1,6.3v1.5H239v-0.6l-4,0.1v0.4h-1.6v-7.8l-0.1-1
		H239.4z M239,92.4l-4.2,0.1v1.9l4.2-0.1V92.4z M234.9,97.9l4-0.1v-1.9h-4.2L234.9,97.9z M236.1,81.7h-0.7V81l1.3-1.3h0.7v0.9h1.6
		v1.2h-1.6v1.8c0.1,0.1,0.2,0.2,0.1,0.4c0,0.1,0,0.3,0.1,0.4c0.2,0.1,0.5,0.2,0.7,0.1c0.4,0,0.6,0,0.6-0.1h0.1v1.2
		c-0.3,0.1-0.6,0.2-0.9,0.1c-1.5,0-2.2-0.6-2.2-1.9v-2.1H236.1z M239.6,77.2v-2.4c0-0.9-0.4-1.3-1.2-1.3c-0.4,0-0.7,0.1-0.9,0.4
		c-0.3,0.2-0.4,0.6-0.3,0.9v2.4l-1.5,0.1v-4.9l1.3-0.1v0.9h0.1l0.1-0.3c0.2-0.2,0.3-0.3,0.4-0.3c0.3-0.2,0.8-0.3,1.2-0.3
		c0.5,0,1.1,0.1,1.5,0.4c0.4,0.4,0.6,1,0.6,1.6v2.8L239.6,77.2z M239.9,83c-0.1-0.7,0.2-1.4,0.7-1.9s1.2-0.8,1.9-0.7
		c0.8,0,1.5,0.3,2.1,0.7c0.5,0.5,0.8,1.1,0.7,1.8c0.1,0.7-0.2,1.4-0.7,1.9s-1.2,0.8-1.9,0.7c-0.8,0-1.5-0.3-2.1-0.7
		C240.1,84.3,239.8,83.7,239.9,83z M244,82.9c0-0.3-0.2-0.7-0.4-0.9c-0.3-0.3-0.7-0.4-1-0.3c-0.5,0-0.8,0.1-0.9,0.3
		c-0.3,0.3-0.4,0.6-0.4,1c0,0.3,0.2,0.7,0.4,0.9c0.3,0.3,0.6,0.4,1,0.4c0.2,0,0.3-0.1,0.4-0.1c0.2-0.1,0.3-0.2,0.4-0.3
		C243.9,83.6,244,83.3,244,82.9z M244.6,111.5l3.4,7.8h0.1l3-7.8h3.1l-4.5,11.2c-0.5,1.3-1.3,2.6-2.2,3.6c-0.8,0.6-1.7,0.9-2.7,0.9
		H244c-0.2-0.1-0.5-0.2-0.7-0.1H243v-2.7c0.5,0.1,1.1,0.2,1.6,0.1c0.4,0.1,0.8-0.1,1.2-0.3c0.4-0.4,0.6-0.9,0.7-1.5l-5.4-11.2H244.6
		z M246.4,96.9c-0.6,1.3-1.3,1.9-2.1,1.9c-0.7,0-1.3-0.3-1.6-0.9c-0.4-0.7-0.7-1.4-0.7-2.2c0-1.1,0.5-2.2,1.2-3
		c0.9-1,2.2-1.5,3.6-1.5c1.2,0,2.3,0.4,3.1,1.2c0.7,0.7,1.1,1.7,1,2.7c0.1,1.2-0.4,2.4-1.3,3.3c-0.5,0.5-1.4,0.9-2.7,1.2
		c-0.2-0.6-0.5-1.2-0.9-1.6c0.7-0.1,1.4-0.3,2.1-0.6c0.7-0.4,1-1.1,1-2.2c0.1-0.8-0.3-1.5-0.9-1.9c-0.2-0.2-0.5-0.3-0.7-0.3
		C247.4,94.3,247,95.6,246.4,96.9L246.4,96.9z M242.1,74.8c0-0.7,0.2-1.4,0.7-1.9c0.4-0.5,1-0.7,1.6-0.7l1,0.1l0.6,0.4l0.1,0.1v-2.7
		h1.5v7h-1.3v-0.9h-0.1l-0.1,0.3c-0.2,0.2-0.3,0.3-0.4,0.3c-0.3,0.2-0.7,0.3-1,0.3c-0.7,0.1-1.3-0.1-1.8-0.6
		C242.3,76.1,242.1,75.5,242.1,74.8L242.1,74.8z M243.6,74.7c0,0.4,0.2,0.8,0.4,1s0.6,0.3,0.9,0.3c0.4,0,0.8-0.2,1-0.4
		c0.3-0.2,0.5-0.5,0.4-0.9c0-0.2-0.1-0.3-0.1-0.4c-0.1-0.2-0.2-0.3-0.3-0.4c-0.3-0.2-0.7-0.3-1-0.3c-0.5,0-0.8,0.1-0.9,0.3
		C243.8,74,243.6,74.3,243.6,74.7L243.6,74.7z M244.6,93.3c-0.7,0.6-1,1.5-1,2.4c0,0.3,0.1,0.7,0.2,1c0.1,0.2,0.3,0.3,0.4,0.2
		c0.3,0,0.6-0.3,0.9-1c0.4-1,0.6-2,0.6-3C245.3,92.9,244.9,93.1,244.6,93.3L244.6,93.3z M253.3,85.3l-0.1-2.5c0-0.8-0.3-1.2-0.9-1.2
		s-0.9,0.4-0.9,1.2v2.5H250l-0.1-2.5c0-0.8-0.3-1.2-0.9-1.2s-0.9,0.4-0.9,1.2v2.7h-1.5v-4.9h1.5v0.7l0.1-0.3l0.3-0.3
		c0.6-0.4,1.4-0.4,2.1,0c0.3,0.1,0.4,0.2,0.4,0.4v0.1h0.1l0.1-0.3l0.3-0.3c0.3-0.2,0.7-0.3,1-0.3c1.3-0.2,1.9,0.5,1.9,2.1v2.8
		L253.3,85.3z M250.6,72.1v2.5c0,0.8,0.3,1.2,0.9,1.2h0.3c0.5,0,0.8-0.1,0.9-0.3c0.3-0.2,0.4-0.5,0.4-0.9l-0.1-2.5h1.5V77h-1.3v-0.7
		H253l-0.1,0.3c-0.1,0-0.3,0.1-0.3,0.2v0.1c-0.4,0.2-0.9,0.3-1.3,0.3c-1.1,0-2.1-0.9-2.1-2v-0.1v-3H250.6z M258.5,92.4
		c-0.1-0.2-0.3-0.6-0.7-1.3l1-0.3c0.3,0.5,0.6,1,0.7,1.5l-0.1,0.1l0.7,0.6c-0.1,0.2-0.2,0.5-0.1,0.7l-0.1,3
		c-0.1,1.1-0.3,1.8-0.7,2.2c-0.4,0.2-0.9,0.3-1.3,0.3h-1.3c0-0.6-0.1-1.2-0.3-1.8c0.4,0.1,0.9,0.2,1.3,0.1c0.2,0,0.3-0.1,0.4-0.2
		c0.1-0.3,0.2-0.5,0.1-0.8c0.1-0.9,0.2-1.8,0.1-2.7h-1.8v0.1l-0.1,0.1c-0.2,1.1-0.5,2.1-1,3.1c-0.6,0.9-1.3,1.7-2.2,2.3
		c-0.3-0.6-0.8-1.1-1.3-1.5c1.6-0.9,2.7-2.4,3-4.2h-1.2c-0.3,0-0.5,0-0.7,0.1c-0.2,0-0.4,0.1-0.6,0.1v-1.6h2.7v-1.8h1.8v1.8h1.7
		L258.5,92.4z M257.2,112.3c0.8-0.5,2.1-0.7,3.9-0.7h6.7v2.1h-1.9c0.3,0.1,0.4,0.6,0.4,1.5c0,1.1-0.6,2.1-1.5,2.7
		c-1.1,0.7-2.4,1-3.7,0.9c-1.6,0-2.4,0.2-2.4,0.7c0,0.6,0.8,0.9,2.4,0.9c2.1,0,3.6,0.3,4.6,0.8s1.6,1.6,1.5,2.8c0,2.2-2,3.3-6.1,3.3
		c-4.3,0-6.4-1.1-6.4-3.3c0-0.8,0.3-1.6,0.9-2.2c0.3-0.3,0.6-0.5,1-0.6l0.1-0.1V121c-0.2,0-0.3-0.2-0.4-0.6
		c-0.2-0.2-0.3-0.5-0.3-0.7c0-0.3,0.2-0.7,0.4-0.9c0-0.3,0.2-0.4,0.6-0.4l0.3-0.1v-0.1c-0.3-0.1-0.5-0.2-0.7-0.4l-0.3-0.4
		c-0.4-0.5-0.6-1.1-0.6-1.8C255.6,114,256.2,112.9,257.2,112.3z M255.7,74.5c0-0.7,0.3-1.3,0.7-1.8c0.6-0.5,1.3-0.8,2.1-0.7
		c0.4,0,0.8,0,1.2,0.1l0.9,0.6c0.4,0.3,0.6,0.8,0.6,1.3h-1.5l-0.1-0.3l-0.1-0.3c-0.2-0.2-0.6-0.3-0.9-0.3c-0.4,0-0.8,0.2-1,0.4
		c-0.2,0.1-0.3,0.4-0.3,0.9c0,0.4,0.1,0.7,0.3,1c0.3,0.2,0.7,0.3,1,0.3s0.5,0,0.7-0.1c0.3-0.2,0.4-0.3,0.4-0.4V75h1.5
		c0,0.5-0.2,1-0.6,1.3c-0.2,0.3-0.5,0.5-0.9,0.6s-0.8,0.2-1.2,0.1c-0.7,0-1.5-0.2-2.1-0.6C255.9,75.9,255.6,75.2,255.7,74.5
		L255.7,74.5z M255.8,82.7c-0.1-0.7,0.2-1.4,0.7-1.8c0.5-0.5,1.2-0.8,1.9-0.7c0.7,0,1.5,0.2,2.1,0.6c0.5,0.5,0.8,1.2,0.7,1.9
		c0.1,0.7-0.2,1.4-0.7,1.9c-0.5,0.4-1.2,0.7-1.9,0.6c-1,0-1.7-0.2-2.1-0.6C256,84.2,255.8,83.4,255.8,82.7L255.8,82.7z M259.9,82.7
		c0-0.5-0.1-0.8-0.3-0.9c-0.3-0.3-0.6-0.4-1-0.4s-0.7,0.1-0.9,0.4c-0.3,0.2-0.4,0.5-0.4,0.9s0.2,0.8,0.4,1s0.6,0.3,0.9,0.3
		c0.4,0,0.7-0.1,1-0.3C259.8,83.5,259.9,83.1,259.9,82.7z M261,122.6c-0.8,0-1.6,0.1-2.3,0.3c-0.4,0.2-0.7,0.6-0.7,1c0,0.7,1,1,3,1
		c1.9,0,2.8-0.3,2.8-1c0-0.5-0.2-0.9-0.7-1C262.5,122.6,261.8,122.5,261,122.6L261,122.6z M261,113.6c-1.4,0-2.1,0.5-2.1,1.5
		c0,0.9,0.7,1.3,2.1,1.3c1.3,0,1.9-0.4,1.9-1.3C263,114.1,262.3,113.6,261,113.6z M260.1,90.3c0.4,0.5,0.7,1,0.9,1.5l-1,0.3
		c-0.2-0.5-0.4-1-0.7-1.5L260.1,90.3z M269.7,91.5l-0.3,0.4c-0.7,0.7-1.5,1.3-2.2,1.9v3.7c0,0.6,0,1.1,0.1,1.6h-1.9V95
		c-1,0.7-2.1,1.2-3.3,1.5c-0.3-0.5-0.6-1-0.9-1.5c1.9-0.5,3.7-1.5,5.2-2.7c0.7-0.5,1.3-1.1,1.8-1.8L269.7,91.5z M262.5,73.2h-0.6
		v-0.7l1.3-1.3h0.7V72h1.5v1.2H264V75c0,0.3,0.1,0.6,0.3,0.7s0.5,0.2,0.7,0.1l0.6-0.1l0.1,1.2l-1,0.1c-1.4,0-2.1-0.6-2.1-1.9
		L262.5,73.2z M266.3,80.2v1.5l-0.9-0.1c-0.4,0-0.8,0.2-1,0.4c-0.2,0.3-0.3,0.7-0.3,1v2.1h-1.5v-4.9h1.3v0.9h0.1l0.1-0.3l0.3-0.3
		l1.2-0.4L266.3,80.2z M266.3,74.5c0-0.7,0.2-1.4,0.7-1.9c1.2-1,3-1,4.2,0c0.5,0.5,0.8,1.1,0.7,1.8c0,0.7-0.2,1.4-0.7,1.9
		c-0.6,0.4-1.3,0.6-2.1,0.6c-0.7,0.1-1.4-0.1-1.9-0.6C266.6,75.9,266.3,75.2,266.3,74.5L266.3,74.5z M270.9,80l0.1,1.6
		c-0.3-0.1-0.6-0.2-0.9-0.1c-0.4,0-0.8,0.1-1,0.4c-0.3,0.1-0.4,0.4-0.4,0.9l0.1,2.2h-1.5v-4.9h1.3V81h0.1l0.1-0.3l0.3-0.4
		c0.4-0.2,0.8-0.3,1.2-0.3L270.9,80z M270.4,74.4c0-0.3-0.1-0.6-0.3-0.9c-0.5-0.6-1.5-0.6-2,0c-0.2,0.3-0.3,0.6-0.3,0.9
		c0,0.4,0.2,0.8,0.4,1c0.1,0.2,0.4,0.3,0.9,0.3c0.4,0,0.7-0.1,1-0.3C270.3,75.1,270.4,74.7,270.4,74.4z M281.3,117.8h-9.1
		c0,0.7,0.3,1.3,0.7,1.8c0.6,0.5,1.4,0.7,2.2,0.7c0.5,0.1,0.9,0,1.3-0.3c0.4-0.1,0.7-0.3,0.9-0.6l0.1-0.3h3.6c0,0.2,0,0.3-0.1,0.4
		l-0.4,0.9c-0.2,0.3-0.5,0.6-0.9,0.9l-1.8,0.9c-0.9,0.3-1.8,0.4-2.7,0.4c-1.7,0.1-3.3-0.5-4.6-1.5c-1.2-0.9-1.8-2.3-1.8-4.2
		c-0.1-1.6,0.6-3.1,1.8-4.2c0.9-0.9,2.4-1.3,4.6-1.3c2,0,3.5,0.4,4.5,1.3c1.1,1,1.6,2.4,1.6,4.2L281.3,117.8L281.3,117.8z
		 M271.6,82.6c0-0.7,0.3-1.4,0.7-1.9c0.4-0.4,1.1-0.6,2.1-0.6c0.7-0.1,1.4,0.1,1.9,0.6c0.6,0.4,1,1.2,0.9,1.9c0,0.7-0.3,1.3-0.7,1.8
		c-0.6,0.5-1.3,0.7-2.1,0.7c-0.7,0-1.5-0.2-2.1-0.6C271.9,84,271.6,83.3,271.6,82.6L271.6,82.6z M271.8,99.1V92c0-0.5,0-1-0.1-1.5
		h1.9v2.8c1.6,0.5,3.1,1.1,4.5,1.9l-0.9,1.8l-3.1-1.8l-0.4-0.1v2.5c0,0.9,0,1.4,0.1,1.5L271.8,99.1z M273.1,114.5
		c-0.5,0.3-0.9,0.9-0.9,1.5h5.8c0-0.6-0.3-1.1-0.7-1.5c-0.6-0.5-1.3-0.7-2.1-0.7C274.5,113.7,273.7,114,273.1,114.5L273.1,114.5z
		 M276.7,71.8l0.1,1.5l-0.9-0.1c-0.4,0-0.8,0.1-1,0.4c-0.3,0.3-0.4,0.6-0.4,1l0.1,2.1h-1.5v-4.9h1.3v0.9h0.1l0.1-0.3l0.3-0.3
		c0.4-0.2,0.8-0.3,1.2-0.3L276.7,71.8z M275.8,82.6c0-0.4-0.2-0.8-0.4-1s-0.6-0.3-0.9-0.3c-0.4,0-0.8,0.2-1,0.4
		c-0.2,0.1-0.3,0.4-0.3,0.9c0,0.3,0.1,0.6,0.3,0.9c0.3,0.3,0.6,0.4,1,0.4c0.5,0,0.8-0.1,0.9-0.4C275.7,83.3,275.8,82.9,275.8,82.6z
		 M276.1,91.1c0.4,0.4,0.7,0.9,1,1.3l-1,0.4l-0.9-1.3L276.1,91.1z M277.5,90.5c0.4,0.4,0.7,0.9,0.9,1.3l-0.9,0.4l-0.9-1.5
		L277.5,90.5z M280.7,73.3V73c-0.2-0.2-0.6-0.3-0.9-0.3c-0.6,0-0.9,0.1-0.9,0.4c0,0.1,0.1,0.2,0.3,0.4h0.9c0.3,0.1,0.7,0.2,1,0.1
		L282,74c0.3,0.3,0.4,0.6,0.4,1c0,0.9-0.8,1.4-2.5,1.6c-1.8,0-2.7-0.5-2.7-1.6v-0.1l1.5-0.1v0.1c0,0.5,0.4,0.7,1.2,0.7
		c0.7-0.1,1-0.3,1-0.6c0-0.1-0.1-0.3-0.2-0.3h-0.1c-0.2-0.1-0.4-0.2-0.6-0.1c-0.3,0-0.6,0-0.9-0.1c-0.3,0-0.6,0-0.9-0.1l-0.6-0.4
		c-0.2-0.2-0.3-0.5-0.3-0.7c0-0.5,0.2-0.9,0.6-1.2c0.5-0.3,1.2-0.5,1.8-0.4c1.6,0,2.4,0.5,2.4,1.6H280.7z M281.2,85h-1.9l-1.3-4.9
		h1.5l0.7,3.6h0.1l0.9-3.6h1.8l1,3.6l0.7-3.6l1.5-0.1l-1.2,5.1h-1.9l-1-3.6L281.2,85z M292.5,122.4v-5.5c0.1-1.4-1-2.6-2.4-2.7
		c-0.1,0-0.2,0-0.3,0c-1.5-0.1-2.9,1.1-3,2.6v0.1v5.5h-3v-10.9h3v1.9h0.3l0.6-0.7l0.7-0.7c0.9-0.4,1.9-0.5,2.8-0.4
		c1.5,0,2.6,0.3,3.3,1c0.8,0.8,1.2,2,1.2,3.6v6.3L292.5,122.4z M299.1,114.2h-1.6v-1.9l3.1-2.8h1.8v2.1h3.4v2.7h-3.4v3.7
		c-0.1,0.7,0.2,1.3,0.6,1.8c0.5,0.4,1.1,0.5,1.6,0.4c0.5,0.1,0.9,0,1.3-0.3l0.3-0.1v2.5c-0.7,0.3-1.4,0.5-2.1,0.4
		c-3.4,0-5.1-1.4-5.1-4.3L299.1,114.2z M307.2,117c-0.1-1.6,0.6-3.1,1.8-4.2c1-0.9,2.5-1.3,4.5-1.3c1.6-0.1,3.3,0.4,4.6,1.3
		c1.2,1,1.9,2.6,1.8,4.2c0,1.9-0.6,3.3-1.8,4.2c-1.4,1-3,1.5-4.6,1.5s-3.2-0.5-4.5-1.5C307.8,120.3,307.2,118.9,307.2,117z
		 M316.4,117c0-0.8-0.3-1.5-0.7-2.1s-1.1-0.9-2.2-0.9c-0.8,0-1.6,0.3-2.2,0.9c-0.4,0.6-0.6,1.3-0.6,2.1c0,1,0.2,1.7,0.6,2.1
		c0.6,0.6,1.4,0.9,2.2,0.9c1.1,0,1.8-0.3,2.2-0.9C316.2,118.6,316.5,117.8,316.4,117z"/>
</g>
</svg>
